<svg xmlns="http://www.w3.org/2000/svg" viewBox="0 0 760 260" role="img" aria-labelledby="title desc">
  <title id="title">LPS Company</title>
  <desc id="desc">Premium corporate horizontal logo for LPS Company on light background.</desc>
  <defs>
    <linearGradient id="silver" x1="0" y1="0" x2="1" y2="1">
      <stop offset="0" stop-color="#FFFFFF"/>
      <stop offset=".52" stop-color="#AEBCC5"/>
      <stop offset="1" stop-color="#F3F7FA"/>
    </linearGradient>
    <linearGradient id="aqua" x1="0" y1="0" x2="1" y2="1">
      <stop offset="0" stop-color="#D8E1E8"/>
      <stop offset="1" stop-color="#7E93A3"/>
    </linearGradient>
  </defs>
  <rect width="760" height="260" rx="34" fill="#F7FAFC"/>
  <rect x="8" y="8" width="744" height="244" rx="28" fill="none" stroke="#AEBCC5" stroke-width="2" opacity=".72"/>
  <g transform="translate(58 48)">
    <rect x="0" y="0" width="164" height="164" rx="28" fill="#FFFFFF" stroke="#AEBCC5" stroke-width="8"/>
    <path d="M34 57L82 29L130 57L82 85Z" fill="#7E93A3"/>
    <path d="M34 86L82 58L130 86L82 114Z" fill="#0A2540"/>
    <path d="M34 115L82 87L130 115L82 143Z" fill="url(#silver)"/>
    <path d="M82 31V141" stroke="#F7FAFC" stroke-width="6" stroke-linecap="round" opacity=".42"/>
    <path d="M34 86L82 114L130 86" fill="none" stroke="#F7FAFC" stroke-width="6" stroke-linecap="round" stroke-linejoin="round" opacity=".28"/>
  </g>
  <text x="270" y="118" fill="#0A2540" font-family="Inter, Arial, sans-serif" font-size="86" font-weight="900" letter-spacing="1">LPS</text>
  <text x="274" y="171" fill="#0A2540" font-family="Inter, Arial, sans-serif" font-size="31" font-weight="800" letter-spacing="9">COMPANY</text>
  <path d="M274 198h252" stroke="#7E93A3" stroke-width="5" stroke-linecap="round"/>
</svg>
