<svg xmlns="http://www.w3.org/2000/svg" viewBox="0 0 760 260" role="img" aria-labelledby="title desc">
  <title id="title">Luciano Wash</title>
  <desc id="desc">Simplified official-style Luciano Wash logo with house, vehicle and water details.</desc>
  <defs>
    <linearGradient id="cyan" x1="134" y1="34" x2="606" y2="202" gradientUnits="userSpaceOnUse">
      <stop stop-color="#7EEBFF"/>
      <stop offset="0.5" stop-color="#21D4FD"/>
      <stop offset="1" stop-color="#0097D7"/>
    </linearGradient>
    <linearGradient id="silver" x1="258" y1="78" x2="456" y2="126" gradientUnits="userSpaceOnUse">
      <stop stop-color="#FFFFFF"/>
      <stop offset="0.55" stop-color="#C9D3D9"/>
      <stop offset="1" stop-color="#F8FBFC"/>
    </linearGradient>
    <filter id="washShadow" x="-20%" y="-30%" width="140%" height="170%">
      <feDropShadow dx="0" dy="8" stdDeviation="5" flood-color="#000000" flood-opacity="0.38"/>
    </filter>
  </defs>
  <rect width="760" height="260" rx="36" fill="#071C32"/>
  <g filter="url(#washShadow)">
    <path d="M232 92 378 28l146 64" fill="none" stroke="#FFFFFF" stroke-width="14" stroke-linecap="round" stroke-linejoin="round"/>
    <path d="M506 44v39" stroke="#FFFFFF" stroke-width="13" stroke-linecap="round"/>
    <circle cx="380" cy="48" r="18" fill="#071C32" stroke="#FFFFFF" stroke-width="8"/>
    <path d="M234 116c18-27 53-42 94-42h88c38 0 72 15 92 42l14 20H218Z" fill="url(#silver)" stroke="#071C32" stroke-width="9"/>
    <path d="M282 103h176M342 84l-21 36M405 84l-16 38" stroke="#FFFFFF" stroke-width="6" stroke-linecap="round" opacity="0.82"/>
    <path d="M218 133h315c19 0 34 14 34 31v13H184v-12c0-18 15-32 34-32Z" fill="#FFFFFF" stroke="#071C32" stroke-width="9"/>
    <path d="M227 145h72M465 145h60" stroke="#B9C6CE" stroke-width="8" stroke-linecap="round"/>
  </g>
  <g filter="url(#washShadow)">
    <path d="M100 69c17 24 24 39 24 53 0 17-13 30-30 30s-30-13-30-30c0-14 19-38 36-53Z" fill="url(#cyan)" stroke="#FFFFFF" stroke-width="5"/>
    <circle cx="95" cy="179" r="17" fill="url(#cyan)" stroke="#FFFFFF" stroke-width="4"/>
    <circle cx="637" cy="136" r="17" fill="url(#cyan)" stroke="#FFFFFF" stroke-width="4"/>
    <circle cx="675" cy="169" r="10" fill="url(#cyan)"/>
    <path d="M641 80v45M619 103h45" stroke="#21D4FD" stroke-width="9" stroke-linecap="round"/>
  </g>
  <g filter="url(#washShadow)">
    <text x="137" y="181" fill="none" stroke="#071C32" stroke-width="18" stroke-linejoin="round" font-family="Inter, Montserrat, Arial, sans-serif" font-size="62" font-weight="950" letter-spacing="-2">LUCIANO</text>
    <text x="137" y="181" fill="#FFFFFF" stroke="#FFFFFF" stroke-width="8" stroke-linejoin="round" font-family="Inter, Montserrat, Arial, sans-serif" font-size="62" font-weight="950" letter-spacing="-2">LUCIANO</text>
    <text x="137" y="181" fill="url(#cyan)" font-family="Inter, Montserrat, Arial, sans-serif" font-size="62" font-weight="950" letter-spacing="-2">LUCIANO</text>
    <text x="176" y="238" fill="none" stroke="#071C32" stroke-width="18" stroke-linejoin="round" font-family="Inter, Montserrat, Arial, sans-serif" font-size="73" font-weight="950" letter-spacing="-3">WASH</text>
    <text x="176" y="238" fill="#FFFFFF" stroke="#FFFFFF" stroke-width="8" stroke-linejoin="round" font-family="Inter, Montserrat, Arial, sans-serif" font-size="73" font-weight="950" letter-spacing="-3">WASH</text>
    <text x="176" y="238" fill="#FFFFFF" font-family="Inter, Montserrat, Arial, sans-serif" font-size="73" font-weight="950" letter-spacing="-3">WASH</text>
  </g>
</svg>
